<svg xmlns="http://www.w3.org/2000/svg" viewBox="0 0 32 32">
    <path fill="#6c4dB5" d="M14.298 0c-1.148 0-2.376.051-3.687.153a29.718 29.718 0 0 0-3.933.495L0 26.68h5.161l2.417-9.337H9.79c.105 0 .204-.005.309-.006l1.038-4.052c-.15.003-.294.017-.444.017h-2.09l2.336-9.11a25.89 25.89 0 0 1 2.866-.153c1.718 0 3.07.266 4.071.79 1.018-.065 2-.107 2.913-.107 1.386 0 2.633.108 3.753.313-.41-1.287-1.21-2.346-2.418-3.167C20.32.623 17.712 0 14.298 0Zm7.131 5.32c-1.147 0-2.378.05-3.689.152a29.713 29.713 0 0 0-3.933.495L7.13 32h5.163l2.417-9.339h2.212c2.213 0 4.234-.177 6.064-.532 1.857-.381 3.442-.98 4.753-1.793 1.338-.813 2.375-1.854 3.113-3.124.765-1.296 1.148-2.859 1.148-4.689 0-2.312-.917-4.09-2.747-5.335-1.802-1.245-4.41-1.869-7.824-1.869Zm-.492 4.04c1.776 0 3.169.278 4.18.837 1.037.56 1.556 1.487 1.556 2.782 0 1.119-.247 2.048-.739 2.785-.491.711-1.147 1.282-1.966 1.714-.82.406-1.761.698-2.827.876a20.123 20.123 0 0 1-3.319.268h-2.088l2.335-9.11c.464-.05.93-.09 1.394-.115a26.46 26.46 0 0 1 1.474-.037zm.732.765a25.887 25.887 0 0 0-2.763.143c-.034.058-.064.12-.101.177-.022.03-.048.057-.07.087l-1.523 5.946c1.284-.366 2.416-.853 3.395-1.46 1.338-.814 2.377-1.855 3.115-3.125a7.59 7.59 0 0 0 .642-1.473c-.774-.189-1.661-.295-2.695-.295z" />
</svg>
